# xmcd
#
# Track frame offsets: 
#        150
#        10076
#        21190
#        31315
#        40538
#        49745
#        58933
#        69464
#        82156
#        90288
#        101015
#        113613
#        123782
#        134765
#
# Disc length: 1944 seconds
#
# Revision: 0
# Processed by: cddbd v1.5.2PL0 Copyright (c) Steve Scherf et al.
# Submitted via: ExactAudioCopy v0.95b1
#
DISCID=b007960e
DTITLE=Southern Aces - Plenty Of Cash
DYEAR=2008
DGENRE=Country
TTITLE0=The Ways Of A Woman In Love
TTITLE1=There You Go
TTITLE2=I'll Miss You
TTITLE3=San Quentin
TTITLE4=Get Rythm
TTITLE5=Bonanza
TTITLE6=Cry Cry Cry
TTITLE7=Folsom Prison Blues
TTITLE8=Big River
TTITLE9=I Walk The Line
TTITLE10=Cocaine Blues
TTITLE11=I Got Stripes
TTITLE12=Just Keep On Going
TTITLE13=I Was Teher When It Happened
EXTD=
EXTT0=
EXTT1=
EXTT2=
EXTT3=
EXTT4=
EXTT5=
EXTT6=
EXTT7=
EXTT8=
EXTT9=
EXTT10=
EXTT11=
EXTT12=
EXTT13=
PLAYORDER=
